<svg viewBox="0 0 26.125 41" xmlns="http://www.w3.org/2000/svg" xmlns:xlink="http://www.w3.org/1999/xlink" width="26.125000" height="41.000000" fill="none">
	<rect id="Frame" width="26.125000" height="41.000000" x="0.000000" y="0.000000" transform="matrix(1,0,0,-1,0,41)" />
	<g id="Group">
		<path id="Vector" d="M14.9479 13.3421C14.9479 13.7521 14.7771 14.1621 14.4696 14.4696L2.71625 26.2229C2.10125 26.8379 1.07625 26.8379 0.46125 26.2229C-0.15375 25.6079 -0.15375 24.5829 0.46125 23.9679L11.0529 13.3421L0.46125 2.71625C-0.15375 2.10125 -0.15375 1.07625 0.46125 0.46125C1.07625 -0.15375 2.10125 -0.15375 2.71625 0.46125L14.4696 12.2146C14.7771 12.5221 14.9479 12.9321 14.9479 13.3421Z" fill="rgb(199,72,23)" fill-rule="nonzero" transform="matrix(1,0,0,-1,2.18066,35.0378)" />
	</g>
</svg>
