<svg viewBox="0 0 26.4062 26" xmlns="http://www.w3.org/2000/svg" xmlns:xlink="http://www.w3.org/1999/xlink" width="26.406250" height="26.000000" fill="none">
	<rect id="Frame" width="26.406250" height="26.000000" x="0.000000" y="0.000000" transform="matrix(1,0,0,-1,0,26)" />
	<g id="Group">
		<path id="Vector" d="M18.9583 14.8853L16.3367 14.8853L13.26 17.9837C12.8483 18.3737 12.22 18.3737 11.8083 17.9837C11.4183 17.572 11.4183 16.9437 11.8083 16.532L13.455 14.8853L7.54 14.8853L9.18667 16.532C9.57667 16.9437 9.57667 17.572 9.18667 17.9837C8.79667 18.3737 8.14667 18.3737 7.75667 17.9837L4.65833 14.8853L2.03667 14.8853C0.91 14.8853 0 13.9753 0 12.8487L0 9.81534C0 9.25201 0.455 8.79701 1.01833 8.79701L1.495 8.79701L2.49167 2.38367C2.68667 0.997006 3.87833 -0.0213274 5.28667 0.000339305L15.73 0.000339305C17.1167 -0.0213274 18.3083 0.997006 18.5033 2.38367L19.5 8.79701L19.9767 8.79701C20.54 8.79701 20.995 9.25201 20.995 9.81534L20.995 12.8487C20.995 13.9753 20.085 14.8853 18.9583 14.8853ZM2.03667 10.8337L2.03667 12.8487L18.9583 12.8487L18.9583 10.8337L2.03667 10.8337ZM17.4417 8.79701L16.51 2.68701C16.445 2.29701 16.12 2.01534 15.73 2.01534L5.28667 2.01534C4.89667 2.01534 4.55 2.29701 4.50667 2.68701L3.55333 8.79701L17.4417 8.79701ZM6.78167 4.39867L6.78167 6.41367C6.78167 6.97701 7.23667 7.43201 7.8 7.43201C8.34167 7.43201 8.79667 6.97701 8.79667 6.41367L8.79667 4.39867C8.79667 3.83534 8.34167 3.38034 7.8 3.38034C7.23667 3.38034 6.78167 3.83534 6.78167 4.39867ZM11.505 4.39867L11.505 6.41367C11.505 6.97701 11.96 7.43201 12.5233 7.43201C13.0867 7.43201 13.5417 6.97701 13.5417 6.41367L13.5417 4.39867C13.5417 3.83534 13.0867 3.38034 12.5233 3.38034C11.96 3.38034 11.505 3.83534 11.505 4.39867Z" fill="rgb(91,88,88)" fill-rule="nonzero" transform="matrix(1,0,0,-1,0.539062,22.707)" />
	</g>
</svg>
