<svg viewBox="0 0 36 36" xmlns="http://www.w3.org/2000/svg" xmlns:xlink="http://www.w3.org/1999/xlink" width="36.000000" height="36.000000" fill="none" customFrame="url(#clipPath_1)">
	<defs>
		<clipPath id="clipPath_1">
			<rect width="36.000000" height="36.000000" x="0.000000" y="0.000000" rx="18.000000" fill="rgb(255,255,255)" />
		</clipPath>
	</defs>
	<rect id="span.qodef-shortcode" width="36.000000" height="36.000000" x="0.000000" y="0.000000" rx="18.000000" fill="rgb(199,72,23)" />
	<path id="" d="M18.6 13.957C16.35 13.957 14.557 15.7852 14.557 18C14.557 20.25 16.35 22.043 18.6 22.043C20.8148 22.043 22.643 20.25 22.643 18C22.643 15.7852 20.8148 13.957 18.6 13.957ZM18.6 20.6367C17.1586 20.6367 15.9633 19.4766 15.9633 18C15.9633 16.5586 17.1234 15.3984 18.6 15.3984C20.0414 15.3984 21.2016 16.5586 21.2016 18C21.2016 19.4766 20.0414 20.6367 18.6 20.6367ZM23.7328 13.8164C23.7328 13.2891 23.3109 12.8672 22.7836 12.8672C22.2563 12.8672 21.8344 13.2891 21.8344 13.8164C21.8344 14.3438 22.2563 14.7656 22.7836 14.7656C23.3109 14.7656 23.7328 14.3438 23.7328 13.8164ZM26.4047 14.7656C26.3344 13.5 26.0531 12.375 25.1391 11.4609C24.225 10.5469 23.1 10.2656 21.8344 10.1953C20.5336 10.125 16.6313 10.125 15.3305 10.1953C14.0648 10.2656 12.975 10.5469 12.0258 11.4609C11.1117 12.375 10.8305 13.5 10.7602 14.7656C10.6898 16.0664 10.6898 19.9688 10.7602 21.2695C10.8305 22.5352 11.1117 23.625 12.0258 24.5742C12.975 25.4883 14.0648 25.7695 15.3305 25.8398C16.6313 25.9102 20.5336 25.9102 21.8344 25.8398C23.1 25.7695 24.225 25.4883 25.1391 24.5742C26.0531 23.625 26.3344 22.5352 26.4047 21.2695C26.475 19.9688 26.475 16.0664 26.4047 14.7656ZM24.7172 22.6406C24.4711 23.3438 23.9086 23.8711 23.2406 24.1523C22.1859 24.5742 19.725 24.4688 18.6 24.4688C17.4398 24.4688 14.9789 24.5742 13.9594 24.1523C13.2563 23.8711 12.7289 23.3438 12.4477 22.6406C12.0258 21.6211 12.1313 19.1602 12.1313 18C12.1313 16.875 12.0258 14.4141 12.4477 13.3594C12.7289 12.6914 13.2563 12.1641 13.9594 11.8828C14.9789 11.4609 17.4398 11.5664 18.6 11.5664C19.725 11.5664 22.1859 11.4609 23.2406 11.8828C23.9086 12.1289 24.4359 12.6914 24.7172 13.3594C25.1391 14.4141 25.0336 16.875 25.0336 18C25.0336 19.1602 25.1391 21.6211 24.7172 22.6406Z" fill="rgb(255,255,255)" fill-rule="nonzero" />
</svg>
