<svg viewBox="0 0 36 36" xmlns="http://www.w3.org/2000/svg" xmlns:xlink="http://www.w3.org/1999/xlink" width="36.000000" height="36.000000" fill="none" customFrame="url(#clipPath_2)">
	<defs>
		<clipPath id="clipPath_2">
			<rect width="36.000000" height="36.000000" x="0.000000" y="0.000000" rx="18.000000" fill="rgb(255,255,255)" />
		</clipPath>
	</defs>
	<rect id="span.qodef-shortcode" width="36.000000" height="36.000000" x="0.000000" y="0.000000" rx="18.000000" fill="rgb(199,72,23)" />
	<path id="" d="M25.7367 14.3438C26.4398 13.8164 27.0727 13.1836 27.5648 12.4453C26.932 12.7266 26.1938 12.9375 25.4555 13.0078C26.2289 12.5508 26.7914 11.8477 27.0727 10.9688C26.3695 11.3906 25.5609 11.707 24.7523 11.8828C24.0492 11.1445 23.1 10.7227 22.0453 10.7227C20.0063 10.7227 18.3539 12.375 18.3539 14.4141C18.3539 14.6953 18.3891 14.9766 18.4594 15.2578C15.4008 15.082 12.6586 13.6055 10.8305 11.3906C10.5141 11.918 10.3383 12.5508 10.3383 13.2539C10.3383 14.5195 10.9711 15.6445 11.9906 16.3125C11.393 16.2773 10.7953 16.1367 10.3031 15.8555L10.3031 15.8906C10.3031 17.6836 11.5688 19.1602 13.2563 19.5117C12.975 19.582 12.6234 19.6523 12.307 19.6523C12.0609 19.6523 11.85 19.6172 11.6039 19.582C12.0609 21.0586 13.432 22.1133 15.0492 22.1484C13.7836 23.1328 12.2016 23.7305 10.4789 23.7305C10.1625 23.7305 9.88125 23.6953 9.6 23.6602C11.2172 24.7148 13.1508 25.3125 15.2602 25.3125C22.0453 25.3125 25.7367 19.7227 25.7367 14.8359C25.7367 14.6602 25.7367 14.5195 25.7367 14.3438Z" fill="rgb(255,255,255)" fill-rule="nonzero" />
</svg>
